<svg height="800" width="800" xmlns="http://www.w3.org/2000/svg" viewBox="0 0 512 512"><path d="M362.52 283.124c13.229.369 55.903-5.18 86.724-23.296-61.625-29.739-119.02-104.774-119.02-104.774s30.673 4.197 69.838-16.82c-73.28-28.017-144.054-126.775-144.054-126.775s-70.772 98.758-144.07 126.775c39.181 21.017 69.854 16.82 69.854 16.82s-57.411 75.034-119.02 104.774c30.805 18.115 73.494 23.664 86.724 23.296C124.283 308.781 65.166 357.995 0 385.225c37.854 23.321 117.79 44.731 199.727 51.92l6.984 63.395h98.594l6.984-63.395c81.937-7.189 161.857-28.599 199.711-51.92-65.15-27.23-124.283-76.444-149.48-102.101z"/></svg>